<?xml version="1.0" encoding="UTF-8" standalone="no"?>
<svg xmlns:ffdec="https://www.free-decompiler.com/flash" xmlns:xlink="http://www.w3.org/1999/xlink" ffdec:objectType="shape" height="6.8px" width="6.2px" xmlns="http://www.w3.org/2000/svg">
  <g transform="matrix(1.0, 0.0, 0.0, 1.0, -0.2, -0.2)">
    <path d="M5.65 2.9 L4.35 3.15 Q4.1 3.3 4.1 3.6 L4.35 4.05 5.65 4.3 6.2 4.5 6.35 4.9 6.25 5.3 5.95 5.6 5.55 5.7 5.1 5.3 4.65 4.75 4.2 4.35 Q4.0 4.2 3.7 4.35 L3.45 4.75 3.6 5.35 4.0 6.55 3.7 6.9 3.3 7.0 2.9 6.9 Q2.6 6.85 2.6 6.6 L2.75 6.0 3.0 5.35 3.15 4.75 2.85 4.3 2.4 4.35 1.95 4.75 1.5 5.3 1.05 5.7 0.65 5.6 0.35 5.3 0.25 4.9 Q0.2 4.65 0.4 4.5 L0.9 4.3 1.6 4.2 2.2 4.0 2.45 3.6 2.2 3.15 1.6 3.0 0.9 2.9 0.35 2.7 Q0.2 2.65 0.2 2.3 L0.35 1.9 0.6 1.6 Q0.8 1.4 1.05 1.5 L1.5 1.9 1.9 2.45 2.4 2.9 2.85 2.9 3.15 2.45 3.0 1.85 2.7 1.2 2.6 0.6 2.85 0.3 3.3 0.2 3.7 0.3 4.0 0.6 3.85 1.2 3.6 1.85 3.45 2.45 3.7 2.9 4.2 2.9 5.1 1.9 5.55 1.5 5.95 1.6 6.25 1.9 6.35 2.3 6.2 2.7 5.65 2.9" fill="#cc0000" fill-rule="evenodd" stroke="none"/>
  </g>
</svg>
