<?xml version="1.0" encoding="UTF-8" standalone="no"?>
<svg xmlns:ffdec="https://www.free-decompiler.com/flash" xmlns:xlink="http://www.w3.org/1999/xlink" ffdec:objectType="shape" height="14.0px" width="14.0px" xmlns="http://www.w3.org/2000/svg">
  <g transform="matrix(1.0, 0.0, 0.0, 1.0, 0.0, 0.0)">
    <path d="M14.0 1.0 L14.0 14.0 1.0 14.0 1.0 13.0 13.0 13.0 13.0 1.0 14.0 1.0" fill="#000000" fill-opacity="0.2" fill-rule="evenodd" stroke="none"/>
    <path d="M12.0 1.0 L12.0 12.0 1.0 12.0 1.0 1.0 12.0 1.0" fill="url(#gradient0)" fill-rule="evenodd" stroke="none"/>
    <path d="M8.95 3.0 L7.6 4.0 7.0 4.0 7.0 6.0 7.6 6.0 7.6 7.0 7.0 7.0 7.0 9.0 7.6 9.0 7.6 10.0 7.0 10.0 7.0 12.0 7.6 12.0 7.6 13.0 0.0 13.0 0.0 0.0 13.0 0.0 11.65 1.0 1.0 1.0 1.0 3.0 8.95 3.0 M4.0 6.0 L6.0 6.0 6.0 4.0 4.0 4.0 4.0 6.0 M6.0 10.0 L4.0 10.0 4.0 12.0 6.0 12.0 6.0 10.0 M4.0 7.0 L4.0 9.0 6.0 9.0 6.0 7.0 4.0 7.0 M3.0 10.0 L1.0 10.0 1.0 12.0 3.0 12.0 3.0 10.0 M1.0 9.0 L3.0 9.0 3.0 7.0 1.0 7.0 1.0 9.0 M3.0 4.0 L1.0 4.0 1.0 6.0 3.0 6.0 3.0 4.0" fill="url(#gradient1)" fill-rule="evenodd" stroke="none"/>
    <path d="M8.95 3.0 L12.0 3.0 12.0 1.0 11.65 1.0 13.0 0.0 13.0 13.0 7.6 13.0 7.6 12.0 9.0 12.0 9.0 10.0 7.6 10.0 7.6 9.0 9.0 9.0 9.0 7.0 7.6 7.0 7.6 6.0 9.0 6.0 9.0 4.0 7.6 4.0 8.95 3.0 M12.0 7.0 L10.0 7.0 10.0 9.0 12.0 9.0 12.0 7.0 M12.0 4.0 L10.0 4.0 10.0 6.0 12.0 6.0 12.0 4.0 M12.0 12.0 L12.0 10.0 10.0 10.0 10.0 12.0 12.0 12.0" fill="url(#gradient2)" fill-rule="evenodd" stroke="none"/>
    <path d="M7.0 10.0 L3.0 10.0 3.0 6.0 7.0 6.0 7.0 10.0 M4.0 9.0 L6.0 9.0 6.0 7.0 4.0 7.0 4.0 9.0" fill="url(#gradient3)" fill-rule="evenodd" stroke="none"/>
    <path d="M1.0 2.0 L12.0 2.0 12.0 3.0 1.0 3.0 1.0 2.0" fill="#6699cc" fill-rule="evenodd" stroke="none"/>
    <path d="M1.0 2.0 L1.0 1.0 12.0 1.0 12.0 2.0 1.0 2.0" fill="#99ccff" fill-rule="evenodd" stroke="none"/>
    <path d="M0.0 0.0 L13.0 0.0 0.0 13.0 0.0 0.0" fill="#ffffff" fill-opacity="0.4" fill-rule="evenodd" stroke="none"/>
  </g>
  <defs>
    <linearGradient gradientTransform="matrix(0.0, 0.0049, -0.0049, 0.0, 5.0, 8.0)" gradientUnits="userSpaceOnUse" id="gradient0" spreadMethod="pad" x1="-819.2" x2="819.2">
      <stop offset="0.0" stop-color="#ffffff"/>
      <stop offset="1.0" stop-color="#d2ffff"/>
    </linearGradient>
    <linearGradient gradientTransform="matrix(0.0, 0.0063, -0.0047, 0.0, 3.35, 8.1)" gradientUnits="userSpaceOnUse" id="gradient1" spreadMethod="pad" x1="-819.2" x2="819.2">
      <stop offset="0.0" stop-color="#888c8e"/>
      <stop offset="1.0" stop-color="#4b4b4d"/>
    </linearGradient>
    <linearGradient gradientTransform="matrix(0.0, 0.0063, 0.0047, 0.0, 9.65, 8.1)" gradientUnits="userSpaceOnUse" id="gradient2" spreadMethod="pad" x1="-819.2" x2="819.2">
      <stop offset="0.0" stop-color="#888c8e"/>
      <stop offset="1.0" stop-color="#4b4b4d"/>
    </linearGradient>
    <linearGradient gradientTransform="matrix(0.0, 0.0024, -0.0024, 0.0, 5.0, 8.0)" gradientUnits="userSpaceOnUse" id="gradient3" spreadMethod="pad" x1="-819.2" x2="819.2">
      <stop offset="0.0" stop-color="#ff6666"/>
      <stop offset="1.0" stop-color="#ff1c1c"/>
    </linearGradient>
  </defs>
</svg>
