<?xml version="1.0" encoding="UTF-8" standalone="no"?>
<svg xmlns:ffdec="https://www.free-decompiler.com/flash" xmlns:xlink="http://www.w3.org/1999/xlink" ffdec:objectType="shape" height="16.15px" width="12.0px" xmlns="http://www.w3.org/2000/svg">
  <g transform="matrix(1.0, 0.0, 0.0, 1.0, 5.5, 7.6)">
    <path d="M-5.1 -1.95 L0.45 -7.6 6.05 -1.95 6.5 -1.95 6.5 3.05 6.05 3.05 0.5 8.55 -5.05 3.05 -5.5 3.05 -5.5 -1.95 -5.1 -1.95" fill="#ffffff" fill-rule="evenodd" stroke="none"/>
    <path d="M-4.5 1.05 L5.5 1.05 5.5 2.05 1.5 2.05 1.5 4.05 3.5 4.05 0.5 7.05 -2.5 4.05 -0.5 4.05 -0.5 2.05 -4.5 2.05 -4.5 1.05 M-4.5 -0.95 L-0.5 -0.95 -0.5 -2.95 -2.5 -2.95 0.5 -5.95 3.5 -2.95 1.5 -2.95 1.5 -0.95 5.5 -0.95 5.5 0.05 -4.5 0.05 -4.5 -0.95" fill="#000000" fill-rule="evenodd" stroke="none"/>
  </g>
</svg>
