<?xml version="1.0" encoding="UTF-8" standalone="no"?>
<svg xmlns:ffdec="https://www.free-decompiler.com/flash" xmlns:xlink="http://www.w3.org/1999/xlink" ffdec:objectType="shape" height="6.0px" width="16.0px" xmlns="http://www.w3.org/2000/svg">
  <g transform="matrix(1.0, 0.0, 0.0, 1.0, 0.0, 0.0)">
    <path d="M16.0 4.0 L0.0 4.0 0.0 3.0 16.0 3.0 16.0 4.0 M16.0 6.0 L0.0 6.0 0.0 5.0 16.0 5.0 16.0 6.0 M16.0 2.0 L0.0 2.0 0.0 1.0 16.0 1.0 16.0 2.0" fill="#000000" fill-opacity="0.3529412" fill-rule="evenodd" stroke="none"/>
    <path d="M16.0 1.0 L0.0 1.0 0.0 0.0 16.0 0.0 16.0 1.0 M16.0 3.0 L0.0 3.0 0.0 2.0 16.0 2.0 16.0 3.0 M16.0 5.0 L0.0 5.0 0.0 4.0 16.0 4.0 16.0 5.0" fill="#eeeeee" fill-rule="evenodd" stroke="none"/>
  </g>
</svg>
