<?xml version="1.0" encoding="UTF-8" standalone="no"?>
<svg xmlns:ffdec="https://www.free-decompiler.com/flash" xmlns:xlink="http://www.w3.org/1999/xlink" ffdec:objectType="shape" height="7.15px" width="6.3px" xmlns="http://www.w3.org/2000/svg">
  <g transform="matrix(1.0, 0.0, 0.0, 1.0, 0.0, 0.0)">
    <path d="M4.6 0.2 L5.4 0.85 5.7 1.95 Q5.7 2.7 5.2 3.25 4.7 3.75 3.7 3.9 L4.25 4.25 5.05 5.2 6.3 7.15 5.1 7.15 4.15 5.65 3.45 4.65 3.0 4.2 2.55 4.0 2.05 3.95 0.95 3.95 0.95 7.15 0.0 7.15 0.0 0.0 3.15 0.0 4.6 0.2 M4.35 1.1 Q4.0 0.8 3.2 0.8 L0.95 0.8 0.95 3.15 2.95 3.15 4.0 3.0 4.55 2.6 4.75 1.95 Q4.75 1.45 4.35 1.1" fill="#000000" fill-rule="evenodd" stroke="none"/>
  </g>
</svg>
