<?xml version="1.0" encoding="UTF-8" standalone="no"?>
<svg xmlns:ffdec="https://www.free-decompiler.com/flash" xmlns:xlink="http://www.w3.org/1999/xlink" ffdec:objectType="shape" height="7.4px" width="6.6px" xmlns="http://www.w3.org/2000/svg">
  <g transform="matrix(1.0, 0.0, 0.0, 1.0, 0.0, 0.0)">
    <path d="M1.25 2.25 Q0.95 2.9 0.95 3.7 0.95 4.65 1.3 5.3 1.6 5.95 2.25 6.25 L3.6 6.55 4.8 6.35 5.7 5.85 5.7 4.5 3.55 4.5 3.55 3.65 6.6 3.65 6.6 6.3 5.15 7.15 3.65 7.4 1.75 6.95 Q0.85 6.5 0.4 5.65 0.0 4.8 0.0 3.75 0.0 2.7 0.4 1.8 0.85 0.9 1.7 0.45 2.5 0.0 3.55 0.0 L4.95 0.25 5.95 0.95 6.5 2.15 5.65 2.4 5.25 1.5 Q5.0 1.2 4.55 1.0 L3.55 0.85 2.45 1.05 Q1.95 1.25 1.7 1.55 1.4 1.85 1.25 2.25" fill="#000000" fill-rule="evenodd" stroke="none"/>
  </g>
</svg>
