<?xml version="1.0" encoding="UTF-8" standalone="no"?>
<svg xmlns:ffdec="https://www.free-decompiler.com/flash" xmlns:xlink="http://www.w3.org/1999/xlink" ffdec:objectType="shape" height="7.15px" width="5.4px" xmlns="http://www.w3.org/2000/svg">
  <g transform="matrix(1.0, 0.0, 0.0, 1.0, 0.0, 0.0)">
    <path d="M5.2 6.0 L4.65 6.7 3.85 7.05 2.7 7.15 0.0 7.15 0.0 0.0 2.65 0.0 4.0 0.2 4.75 0.9 5.05 1.8 4.8 2.7 4.05 3.35 Q4.7 3.55 5.05 4.0 5.4 4.45 5.4 5.05 L5.2 6.0 M3.95 1.3 Q3.75 1.05 3.45 0.95 L2.35 0.85 0.95 0.85 0.95 3.0 2.5 3.0 3.4 2.9 3.95 2.55 4.1 1.95 3.95 1.3 M4.25 5.7 L4.4 5.05 4.2 4.4 Q4.0 4.1 3.65 3.95 L2.6 3.85 0.95 3.85 0.95 6.3 2.7 6.3 3.35 6.25 3.9 6.1 4.25 5.7" fill="#000000" fill-rule="evenodd" stroke="none"/>
  </g>
</svg>
