<?xml version="1.0" encoding="UTF-8" standalone="no"?>
<svg xmlns:ffdec="https://www.free-decompiler.com/flash" xmlns:xlink="http://www.w3.org/1999/xlink" ffdec:objectType="shape" height="7.4px" width="5.7px" xmlns="http://www.w3.org/2000/svg">
  <g transform="matrix(1.0, 0.0, 0.0, 1.0, 0.0, 0.0)">
    <path d="M1.6 1.15 Q1.2 1.5 1.2 1.95 L1.45 2.55 2.9 3.1 4.5 3.55 Q5.1 3.8 5.4 4.25 L5.7 5.3 5.35 6.35 4.45 7.15 3.05 7.4 1.45 7.15 0.4 6.3 Q0.0 5.7 0.0 5.0 L0.9 4.9 1.2 5.8 1.9 6.35 3.0 6.55 3.95 6.4 4.6 5.95 4.8 5.35 4.6 4.75 3.95 4.35 2.65 4.0 1.3 3.55 0.55 2.9 Q0.25 2.5 0.25 2.0 0.25 1.45 0.6 1.0 0.9 0.5 1.5 0.25 L2.8 0.0 Q3.6 0.0 4.2 0.3 L5.15 1.05 5.5 2.15 4.55 2.25 Q4.5 1.55 4.1 1.2 3.65 0.85 2.85 0.85 1.95 0.85 1.6 1.15" fill="#000000" fill-rule="evenodd" stroke="none"/>
  </g>
</svg>
