<?xml version="1.0" encoding="UTF-8" standalone="no"?>
<svg xmlns:ffdec="https://www.free-decompiler.com/flash" xmlns:xlink="http://www.w3.org/1999/xlink" ffdec:objectType="shape" height="9.0px" width="9.0px" xmlns="http://www.w3.org/2000/svg">
  <g transform="matrix(1.0, 0.0, 0.0, 1.0, 4.5, 4.5)">
    <path d="M4.0 0.0 Q4.0 1.65 2.85 2.8 1.65 3.95 0.0 4.0 -1.65 3.95 -2.8 2.8 -4.0 1.65 -4.0 0.0 -4.0 -1.7 -2.8 -2.85 -1.65 -4.0 0.0 -4.0 1.65 -4.0 2.85 -2.85 4.0 -1.7 4.0 0.0 Z" fill="none" stroke="#ffffff" stroke-linecap="round" stroke-linejoin="round" stroke-width="0.05"/>
    <path d="M3.2 -3.15 Q4.5 -1.85 4.5 0.0 4.5 1.85 3.2 3.2 1.85 4.5 0.0 4.5 -1.85 4.5 -3.15 3.2 -4.5 1.85 -4.5 0.0 -4.5 -1.85 -3.15 -3.15 -1.85 -4.5 0.0 -4.5 1.85 -4.5 3.2 -3.15 Z" fill="none" stroke="#000000" stroke-linecap="round" stroke-linejoin="round" stroke-width="0.05"/>
  </g>
</svg>
